<?xml version="1.0" encoding="UTF-8"?>
<svg id="Layer_1" data-name="Layer 1" xmlns="http://www.w3.org/2000/svg" xmlns:xlink="http://www.w3.org/1999/xlink" viewBox="0 0 160 160">
  <defs>
    <style>
      .cls-1 {
        fill: url(#linear-gradient);
      }

      .cls-2 {
        fill: #fff;
      }
    </style>
    <linearGradient id="linear-gradient" x1=".12" y1="80" x2="159.88" y2="80" gradientUnits="userSpaceOnUse">
      <stop offset="0" stop-color="#b7f684"/>
      <stop offset=".31" stop-color="#b5f382"/>
      <stop offset=".45" stop-color="#b0ec7e"/>
      <stop offset=".56" stop-color="#a6df78"/>
      <stop offset=".64" stop-color="#99ce6e"/>
      <stop offset=".72" stop-color="#87b661"/>
      <stop offset=".79" stop-color="#729952"/>
      <stop offset=".85" stop-color="#587740"/>
      <stop offset=".91" stop-color="#3b4f2a"/>
      <stop offset=".96" stop-color="#1a2313"/>
      <stop offset="1" stop-color="#000"/>
    </linearGradient>
  </defs>
  <g>
    <path class="cls-1" d="M80,159.88C35.96,159.88.12,124.04.12,80S35.96.12,80,.12s79.88,35.83,79.88,79.88-35.83,79.88-79.88,79.88Z"/>
    <path class="cls-2" d="M80,.25c43.97,0,79.75,35.78,79.75,79.75s-35.78,79.75-79.75,79.75S.25,123.97.25,80,36.03.25,80,.25M80,0C35.82,0,0,35.82,0,80s35.82,80,80,80,80-35.82,80-80S124.18,0,80,0h0Z"/>
  </g>
  <g>
    <path d="M70.16,110.88c0,4.62-3.15,8.17-9.43,10.64-5.03,1.98-10.42,2.97-16.17,2.97-5.3,0-11.1-.99-17.38-2.97-8.09-2.56-12.13-5.73-12.13-9.53,0-2.06,1.08-3.09,3.23-3.09,1.71,0,3.68.91,5.93,2.72,3.14,2.72,4.85,4.17,5.12,4.33,3.41,2.06,8.94,3.09,16.57,3.09,10.24,0,15.36-2.47,15.36-7.43,0-2.31-2.2-5.16-6.6-8.54-.72-.49-4.09-2.72-10.11-6.68-9.61-6.27-15.68-10.64-18.19-13.12-5.66-5.53-8.49-11.96-8.49-19.31,0-6.77,2.11-12.95,6.33-18.57,4.67-6.27,10.56-9.41,17.65-9.41,6.02,0,11.18,2.35,15.5,7.06,3.77,4.13,6.24,9.12,7.41,14.98.09,1.98.45,4.99,1.08,9.03l1.08,4.46c0,6.6-1.75,9.9-5.26,9.9-.9,0-1.82-.47-2.76-1.42-.94-.95-1.41-1.84-1.41-2.66,0-1.15.25-2.85.74-5.07.49-2.23.74-3.92.74-5.07,0-5.69-.98-10.73-2.94-15.1-2.59-5.94-6.51-8.91-11.76-8.91s-9.65,2.13-13.17,6.37c-3.52,4.25-5.28,8.89-5.28,13.92,0,6.77,3.85,13.2,11.55,19.31,7.07,4.7,14.2,9.45,21.36,14.23,7.61,5.12,11.42,9.74,11.42,13.86Z"/>
    <path d="M144.95,43.18c-1.44.99-2.2,1.53-2.29,1.61-.63.58-1.12,1.32-1.48,2.23-1.98,4.7-3.15,17.66-3.5,38.86,3.23.66,4.85,1.65,4.85,2.97,0,.83-.4,1.78-1.21,2.85-.9.33-2.2.83-3.91,1.49,0,3.63.45,8.95,1.35,15.97.09.41.54,1.65,1.35,3.71.63,1.65.94,2.81.94,3.47,0,.99-.4,1.98-1.21,2.97-.81.99-1.75,1.49-2.83,1.49-2.43,0-4.09-1.65-4.99-4.95-.09-.41-.45-3.03-1.08-7.86-.63-4.83-.94-7.94-.94-9.34,0-1.48.13-2.89.4-4.21-5.59.08-12.17.78-19.74,2.09-6.49,1.15-12.98,2.34-19.47,3.58l-2.43,2.22c.09,3.12.14,6.29.14,9.49.38,4.85,1.27,7.97,2.69,9.37-.36,1.07-.92,1.6-1.68,1.6s-1.66.18-2.7.56c-1.03.37-1.82.56-2.36.56-1.71,0-2.79-3.06-3.23-9.18-.18-3.84-.32-7.67-.4-11.51l-.94-1.22h-.54c-1.17,0-2.25-.31-3.23-.93-.99-.62-1.48-1.42-1.48-2.41,0-.66.4-1.59,1.21-2.78.81-1.2,1.62-1.8,2.43-1.8h1.48l.67-.12c.09-3.61.13-10.84.13-21.68,0-14.37,1.08-24.15,3.23-29.32.99-2.22,2.6-3.33,4.85-3.33,1.44,0,2.83.43,4.18,1.3,1.35.87,2.02,1.96,2.02,3.28,0,.49-.41,1.61-1.24,3.34-.92,2.06-1.42,3.26-1.51,3.59-2.48,7.92-3.72,19.89-3.72,35.89,0,3.71.77,5.57,2.3,5.57.45,0,2.84-.41,7.16-1.24,9.73-1.65,16.22-2.47,19.47-2.47.81,0,2.19-.23,4.12-.68,1.94-.45,3.83-.68,5.68-.68s2.72-1.15,2.64-3.47l-.27-10.89c-.18-7.01.18-14.03,1.08-21.04,1.35-11.06,3.77-16.59,7.28-16.59,1.8,0,3.41.87,4.85,2.6,1.17,1.57,1.8,3.26,1.89,5.08Z"/>
  </g>
</svg>